<?xml version="1.0" standalone="no"?>
<!DOCTYPE svg PUBLIC "-//W3C//DTD SVG 20010904//EN"
 "http://www.w3.org/TR/2001/REC-SVG-20010904/DTD/svg10.dtd">
<svg version="1.0" xmlns="http://www.w3.org/2000/svg"
 width="630.000000pt" height="630.000000pt" viewBox="0 0 630.000000 630.000000"
 preserveAspectRatio="xMidYMid meet">
<metadata>
Created by potrace 1.14, written by Peter Selinger 2001-2017
</metadata>
<g transform="translate(0.000000,630.000000) scale(0.100000,-0.100000)"
fill="#000000" stroke="none">
<path d="M31 4738 l-31 -32 0 -1554 c0 -1432 1 -1556 17 -1582 9 -16 27 -33
40 -39 17 -8 908 -11 3094 -11 2847 0 3073 1 3099 17 16 9 33 27 39 40 8 17
11 481 11 1576 -1 1466 -2 1553 -18 1573 -10 12 -27 26 -39 33 -16 8 -804 11
-3101 11 l-3080 0 -31 -32z"/>
</g>
</svg>
